<svg width="671" height="797" viewBox="0 0 671 797" fill="none" xmlns="http://www.w3.org/2000/svg">
<g id="shopping-cart">
<g id="cart">
<path id="Vector_18" d="M113.999 725.588C108.957 724.571 103.748 724.72 98.7717 726.023C93.7952 727.326 89.182 729.748 85.2841 733.105C81.141 736.936 78.0844 741.794 76.424 747.187C74.7636 752.58 74.5586 758.316 75.8296 763.813C77.48 769.931 80.8291 775.456 85.4894 779.749C90.1496 784.042 95.9303 786.928 102.162 788.072C103.845 788.411 120.969 791.596 132.461 779.451C143.402 767.894 142.724 749.321 134.156 737.776C129.162 731.376 121.987 727.037 113.999 725.588Z" fill="white"/>
<path id="Vector_19" d="M408.727 725.588C403.684 724.571 398.476 724.72 393.499 726.023C388.523 727.326 383.91 729.748 380.012 733.105C375.869 736.936 372.812 741.794 371.152 747.187C369.491 752.58 369.286 758.316 370.557 763.813C372.208 769.931 375.557 775.456 380.217 779.749C384.877 784.042 390.658 786.928 396.89 788.072C398.576 788.411 415.697 791.596 427.192 779.451C438.13 767.894 437.455 749.321 428.883 737.776C423.89 731.375 416.715 727.036 408.727 725.588Z" fill="white"/>
<path id="Vector_20" d="M51.9227 360.066C58.6031 391.58 62.8079 411.858 61.4643 407.65L472.042 407.696C491.175 308.573 512.472 197.298 528.869 109.202C510.681 110.135 496.981 110.823 496.981 110.823C442.179 111.445 75.9976 133.038 12.4965 136.636C11.7361 136.673 10.9922 136.871 10.3141 137.217C9.63598 137.563 9.03903 138.049 8.56276 138.643C8.08648 139.237 7.74173 139.925 7.55131 140.662C7.36089 141.399 7.32914 142.168 7.45817 142.919C15.6221 190.204 38.6396 297.373 51.9227 360.066Z" fill="white"/>
<path id="Vector_21" d="M115.99 718.391C108.353 716.742 100.403 717.328 93.0907 720.08C85.7785 722.831 79.4142 727.632 74.7598 733.907C69.3457 741.585 66.8858 750.959 67.8326 760.306C68.7795 769.652 73.0694 778.343 79.9132 784.778C84.8369 789.225 90.7026 792.501 97.0713 794.36C103.44 796.219 110.147 796.614 116.69 795.514C125.523 794.077 133.549 789.522 139.312 782.675C145.074 775.828 148.193 767.143 148.101 758.194C148.217 748.858 145.073 739.775 139.211 732.509C133.35 725.242 125.138 720.248 115.99 718.385C114.083 717.908 112.065 718.183 110.355 719.154C108.645 720.124 107.374 721.715 106.806 723.597C106.299 725.506 106.561 727.537 107.537 729.254C108.512 730.971 110.123 732.236 112.021 732.778C113.993 733.173 115.93 733.721 117.815 734.417C119.93 735.201 116.534 733.758 118.699 734.79C119.411 735.132 120.111 735.487 120.798 735.87C121.997 736.549 123.151 737.306 124.253 738.134C128.969 742.058 132.044 747.605 132.874 753.684C133.807 759.227 132.889 764.924 130.262 769.894C128.872 772.397 126.995 774.597 124.741 776.362C122.486 778.127 119.901 779.423 117.137 780.172C116.397 780.381 115.648 780.561 114.895 780.717C114.783 780.742 112.364 781.155 113.99 780.928C112.876 781.075 111.755 781.164 110.631 781.196C110.18 781.196 104.48 780.76 104.386 780.944C104.542 780.633 106.473 781.326 105.074 781.028C104.859 780.984 104.638 780.956 104.42 780.916C103.59 780.76 102.769 780.561 101.954 780.34C98.466 779.478 95.2023 777.881 92.3817 775.655C89.5611 773.429 87.2488 770.626 85.5996 767.434C83.9505 764.242 83.0026 760.734 82.8195 757.145C82.6364 753.557 83.2222 749.971 84.5378 746.627C86 743.366 88.1724 740.473 90.8962 738.159C93.62 735.845 96.8263 734.17 100.281 733.254C102.884 732.493 105.604 732.214 108.308 732.43C109.356 732.461 110.395 732.588 111.443 732.651C112.998 732.744 109.726 732.159 110.995 732.595C111.33 732.676 111.67 732.735 112.012 732.772C113.919 733.247 115.935 732.97 117.644 732C119.353 731.03 120.623 729.44 121.193 727.559C121.697 725.654 121.435 723.627 120.463 721.913C119.49 720.199 117.884 718.935 115.99 718.391Z" fill="#211715"/>
<path id="Vector_22" d="M410.711 718.391C403.074 716.742 395.124 717.328 387.812 720.08C380.5 722.831 374.136 727.632 369.481 733.907C364.065 741.584 361.604 750.959 362.55 760.306C363.495 769.653 367.785 778.345 374.628 784.781C379.552 789.228 385.418 792.504 391.786 794.363C398.155 796.222 404.862 796.617 411.405 795.517C420.238 794.08 428.264 789.525 434.027 782.678C439.789 775.831 442.908 767.146 442.816 758.197C442.932 748.862 439.788 739.779 433.926 732.512C428.065 725.246 419.853 720.251 410.705 718.388C408.798 717.911 406.781 718.186 405.071 719.157C403.362 720.127 402.092 721.719 401.524 723.6C401.016 725.509 401.278 727.54 402.253 729.257C403.228 730.974 404.838 732.24 406.736 732.781C408.708 733.176 410.645 733.724 412.531 734.42C414.649 735.204 411.249 733.761 413.417 734.794C414.126 735.136 414.826 735.49 415.513 735.873C416.712 736.553 417.866 737.309 418.968 738.137C423.684 742.062 426.76 747.609 427.593 753.687C428.524 759.231 427.605 764.927 424.977 769.897C423.587 772.4 421.71 774.6 419.456 776.365C417.201 778.131 414.616 779.426 411.853 780.175C411.112 780.384 410.363 780.564 409.61 780.72C409.498 780.745 407.079 781.158 408.705 780.931C407.591 781.078 406.47 781.167 405.346 781.199C404.895 781.199 399.198 780.763 399.101 780.947C399.257 780.636 401.191 781.329 399.789 781.031C399.574 780.987 399.353 780.959 399.136 780.919C398.308 780.763 397.484 780.564 396.669 780.343C393.181 779.481 389.917 777.884 387.097 775.658C384.276 773.432 381.964 770.629 380.315 767.437C378.666 764.245 377.718 760.737 377.535 757.149C377.351 753.56 377.937 749.974 379.253 746.63C380.715 743.369 382.887 740.476 385.611 738.162C388.335 735.849 391.541 734.173 394.996 733.257C397.599 732.496 400.32 732.217 403.023 732.433C404.074 732.464 405.113 732.592 406.158 732.654C407.713 732.747 404.441 732.162 405.71 732.598C406.045 732.679 406.385 732.738 406.727 732.775C408.634 733.25 410.65 732.973 412.359 732.003C414.068 731.033 415.338 729.443 415.908 727.563C416.415 725.658 416.154 723.63 415.182 721.916C414.211 720.201 412.605 718.935 410.711 718.391Z" fill="#211715"/>
<path id="Vector_23" d="M67.9176 400.276C60.8422 364.246 52.7996 328.396 45.2142 292.472C35.6041 247.009 25.8821 201.543 17.3729 155.856C16.6265 151.861 15.9009 147.859 15.1959 143.852C15.1526 143.353 15.0662 142.858 14.9378 142.374C14.661 141.631 15.1493 141.634 14.8725 141.858C14.9284 141.811 13.3827 144.144 13.4387 143.985C13.2583 144.514 12.5057 143.802 13.4636 144.038C14.8182 144.129 16.1789 144.048 17.5129 143.796L39.6378 142.52C61.7255 141.241 83.8141 139.965 105.904 138.692C166.407 135.205 226.913 131.783 287.422 128.429C352.36 124.84 417.323 120.884 482.327 118.66C487.216 118.492 492.108 118.349 497 118.287C506.601 118.181 506.625 103.253 497 103.359C467.476 103.67 437.909 105.588 408.441 107.063C374.326 108.769 340.219 110.572 306.12 112.471C243.993 115.876 181.874 119.38 119.762 122.983C95.7257 124.364 71.6891 125.751 47.6525 127.144L22.999 128.556L14.0638 129.069C6.24827 129.517 -0.491218 134.357 0.0281614 142.906C0.534415 147.447 1.31124 151.953 2.35448 156.401C3.21286 161.072 4.09093 165.737 4.9887 170.396C7.01853 180.97 9.10227 191.529 11.2399 202.072C16.216 226.72 21.3051 251.341 26.5072 275.936C35.0008 316.329 43.8209 356.657 52.103 397.094C52.5881 399.47 53.0671 401.849 53.5398 404.232C54.083 406.13 55.3488 407.739 57.0655 408.713C58.7822 409.688 60.8126 409.95 62.7207 409.444C64.6078 408.885 66.2049 407.616 67.1767 405.904C68.1485 404.192 68.4196 402.171 67.9331 400.263L67.9176 400.276Z" fill="#211715"/>
<path id="Vector_24" d="M387.187 368.964C395.142 312.516 403.903 256.184 413.103 199.926C415.384 185.941 417.695 171.959 420.038 157.981C420.506 156.074 420.226 154.061 419.257 152.354C418.288 150.647 416.702 149.375 414.826 148.8C412.917 148.289 410.884 148.55 409.166 149.525C407.448 150.5 406.182 152.112 405.642 154.012C396.731 207.406 388.114 260.852 380.139 314.395C377.626 331.251 375.179 348.118 372.796 364.995C372.337 366.902 372.62 368.912 373.589 370.617C374.558 372.322 376.139 373.595 378.012 374.176C379.919 374.686 381.951 374.426 383.668 373.45C385.384 372.475 386.648 370.863 387.187 368.964Z" fill="#211715"/>
<path id="Vector_25" d="M115.613 173.938C123.892 223.227 131.913 272.552 139.315 321.983C141.66 337.614 143.941 353.257 146.157 368.911C146.695 370.813 147.96 372.427 149.679 373.403C151.398 374.378 153.433 374.637 155.341 374.123C157.221 373.553 158.811 372.282 159.781 370.574C160.751 368.865 161.027 366.849 160.554 364.942C153.158 312.628 144.979 260.423 136.389 208.301C134.284 195.523 132.157 182.746 130.007 169.97C129.467 168.07 128.202 166.458 126.484 165.483C124.766 164.508 122.734 164.247 120.826 164.757C118.942 165.322 117.348 166.591 116.377 168.302C115.406 170.012 115.132 172.031 115.613 173.938Z" fill="#211715"/>
<path id="Vector_26" d="M305.964 366.927C309.697 312.852 313.898 258.809 317.783 204.746C318.819 190.233 319.839 175.724 320.843 161.221C320.843 159.242 320.057 157.343 318.657 155.943C317.257 154.543 315.358 153.757 313.379 153.757C311.399 153.757 309.501 154.543 308.101 155.943C306.701 157.343 305.915 159.242 305.915 161.221C301.921 220.129 297.443 279.005 293.135 337.891C292.426 347.57 291.708 357.245 291.039 366.927C291.057 368.901 291.849 370.789 293.245 372.185C294.641 373.581 296.529 374.373 298.503 374.391C300.471 374.353 302.348 373.555 303.74 372.163C305.132 370.771 305.927 368.895 305.964 366.927Z" fill="#211715"/>
<path id="Vector_27" d="M207.792 166.676C211.612 223.833 215.941 280.962 220.13 338.093C220.833 347.703 221.535 357.315 222.236 366.927C222.281 368.892 223.082 370.765 224.472 372.155C225.862 373.545 227.734 374.346 229.7 374.391C231.674 374.374 233.563 373.582 234.959 372.186C236.355 370.79 237.147 368.901 237.164 366.927C233.342 313.785 229.351 260.656 225.566 207.511C224.596 193.902 223.648 180.29 222.721 166.676C222.676 164.711 221.876 162.838 220.485 161.447C219.095 160.057 217.222 159.256 215.257 159.212C213.282 159.229 211.394 160.021 209.998 161.417C208.601 162.813 207.81 164.702 207.792 166.676Z" fill="#211715"/>
<path id="Vector_28" d="M104.1 308.377L353.097 301.164L423.463 299.127C433.048 298.851 433.088 283.922 423.463 284.199L177.964 291.312L104.1 293.448C94.5149 293.725 94.4744 308.657 104.1 308.377Z" fill="#211715"/>
<path id="Vector_29" d="M76.3459 237.993C125.522 235.92 174.693 233.698 223.859 231.328C270.57 229.12 317.28 226.915 363.989 224.713C391.102 223.469 418.218 222.271 445.336 221.118C454.905 220.713 454.958 205.785 445.336 206.189C398.007 208.19 350.686 210.334 303.374 212.621C256.155 214.858 208.933 217.085 161.708 219.301C133.253 220.604 104.798 221.858 76.3428 223.065C66.77 223.469 66.7234 238.4 76.3459 237.993Z" fill="#211715"/>
<path id="Vector_30" d="M428.047 595.115C425.915 606.027 423.784 616.94 421.652 627.854L420.489 633.807C420.38 634.373 419.752 635.999 419.961 636.516C420.645 638.217 422.514 633.906 422.98 634.83C422.552 634.793 422.121 634.793 421.693 634.83C418.747 634.648 415.793 634.648 412.848 634.83H79.1325C71.7194 634.366 64.2805 634.518 56.8925 635.284C52.0909 636.156 47.6272 638.349 44.0018 641.616C40.3763 644.883 37.7323 649.095 36.3661 653.78C35.263 659.279 34.9156 664.903 35.3336 670.496C35.0822 675.637 36.1057 680.76 38.313 685.409C40.6254 689.71 44.0775 693.291 48.2908 695.76C52.504 698.229 57.3157 699.489 62.1983 699.404C69.2394 699.463 76.2837 699.404 83.3249 699.404H190.255H315.519C355.58 699.404 395.64 699.404 435.697 699.404C445.426 699.404 454.955 699.544 463.321 693.734C467.074 691.124 470.274 687.797 472.736 683.945C475.198 680.093 476.873 675.792 477.665 671.289C479.574 661.53 481.48 651.769 483.381 642.008C488.45 616.027 493.509 590.042 498.558 564.054C504.753 532.164 510.933 500.27 517.097 468.374C523.871 433.298 530.622 398.219 537.35 363.135C544.078 328.052 550.761 292.983 557.4 257.928C563.457 225.932 569.458 193.924 575.404 161.905C580.2 136.023 584.909 110.126 589.53 84.2131C590.868 76.7831 595.526 70.5599 603.665 70.2738C612.063 69.9814 620.503 70.2738 628.904 70.2738C633.786 70.2738 638.672 70.2738 643.558 70.2738C648.422 70.4085 653.231 69.215 657.467 66.8214C661.704 64.4279 665.207 60.9249 667.602 56.689C669.912 52.1155 671.012 47.0263 670.796 41.9069C671.238 36.3537 670.69 30.7661 669.176 25.405C667.373 20.5572 664.194 16.3417 660.027 13.2768C655.861 10.2119 650.89 8.43115 645.726 8.1535C637.873 7.68699 629.865 8.11929 621.993 8.11618H596.021H580.346C574.315 7.82215 568.271 7.99893 562.267 8.64489C557.471 9.46516 552.909 11.3097 548.89 14.0527C544.871 16.7958 541.491 20.3729 538.979 24.5404C534.445 32.0636 533.786 41.3098 532.246 49.7816C530.629 58.6598 529.003 67.5369 527.37 76.413C519.731 117.905 511.968 159.373 504.078 200.815C495.333 246.979 486.521 293.128 477.643 339.263C473.386 361.412 469.12 383.561 464.845 405.709L472.042 400.229L301.377 400.21L99.945 400.189C86.7211 400.189 73.2825 399.492 60.0741 400.214C55.4384 400.43 50.9422 401.867 47.0403 404.38C43.1383 406.892 39.9689 410.39 37.8527 414.52C35.9202 418.632 34.9624 423.135 35.0537 427.678C34.6093 433.055 34.9233 438.468 35.9867 443.757C37.2569 448.216 39.6832 452.26 43.0198 455.478C46.3564 458.697 50.4846 460.976 54.986 462.085C61.2766 463.022 67.6509 463.266 73.9947 462.813H112.964H303.013H453.49H462.82L455.624 453.364C446.453 500.61 437.257 547.849 428.034 595.08C427.56 596.987 427.836 599.003 428.806 600.712C429.776 602.421 431.366 603.692 433.247 604.261C435.155 604.769 437.187 604.508 438.905 603.533C440.622 602.558 441.888 600.948 442.431 599.049C451.649 551.817 460.845 504.579 470.02 457.333C470.303 456.226 470.332 455.069 470.105 453.949C469.877 452.829 469.399 451.775 468.707 450.866C468.014 449.957 467.125 449.217 466.105 448.701C465.086 448.184 463.963 447.905 462.82 447.884H330.954H143.001H65.2492C59.2126 447.884 53.2382 447.325 50.6537 440.837C49.1547 437.08 49.9446 432.372 49.9602 428.422C49.6521 425.249 50.4641 422.068 52.2554 419.431C56.3793 414.084 63.0038 415.104 68.9626 415.104H88.3103L281.47 415.123L457.331 415.142H472.06C473.691 415.128 475.273 414.587 476.57 413.599C477.868 412.611 478.81 411.23 479.257 409.662C496.429 320.702 513.411 231.705 530.203 142.673C533.786 123.548 537.345 104.42 540.88 85.2891C542.509 76.4524 544.131 67.6157 545.744 58.779C546.469 54.7961 547.195 50.8131 547.921 46.8302C548.365 42.7595 549.21 38.7426 550.443 34.8378C551.892 31.3577 554.333 28.3812 557.462 26.2795C560.591 24.1778 564.27 23.044 568.04 23.0196C578.866 22.7708 589.729 23.0196 600.558 23.0196H625.249H636.215C640.131 22.603 644.086 22.7697 647.953 23.5141C656.938 26.4033 656.25 36.2653 655.908 44.0062C655.597 51.3211 650.207 55.2833 643.219 55.3206C630.735 55.3828 618.249 55.2615 605.765 55.3206C600.694 55.169 595.666 56.2816 591.133 58.5581C586.6 60.8347 582.705 64.2036 579.799 68.3611C575.622 74.4475 574.904 81.7343 573.644 88.7973C571.459 101.055 569.243 113.308 566.998 125.555C555.553 188.171 543.808 250.731 531.764 313.235C518.864 380.86 505.853 448.465 492.733 516.051C483.042 566.056 473.313 616.057 463.545 666.052C462.189 672.994 459.838 679.008 453.179 682.448C446.082 686.112 436.4 684.463 428.669 684.463C409.505 684.463 390.34 684.463 371.176 684.463H248.995H132.535H83.7914C76.8622 684.463 69.9299 684.485 63.0006 684.463C56.6033 684.445 51.0176 681.073 50.3054 674.262C49.8046 669.427 49.814 664.553 50.3334 659.72C50.544 658.034 51.1254 656.415 52.0357 654.981C52.9461 653.546 54.1629 652.331 55.5987 651.422C58.3522 649.975 61.4772 649.388 64.5681 649.74H336.471C364.86 649.74 393.332 650.362 421.715 649.74C424.342 649.928 426.959 649.259 429.174 647.833C431.389 646.407 433.081 644.301 433.996 641.831C435.04 638.013 435.837 634.132 436.382 630.212L442.465 599.064C442.94 597.157 442.664 595.14 441.693 593.431C440.722 591.722 439.131 590.452 437.249 589.883C435.336 589.37 433.297 589.631 431.574 590.61C429.852 591.589 428.584 593.208 428.047 595.115Z" fill="#211715"/>
</g>
</g>
</svg>
