<svg width="671" height="797" viewBox="0 0 671 797" fill="none" xmlns="http://www.w3.org/2000/svg">
    <g id="shopping-cart">
        <g id="groceries">
            <path id="Vector" d="M406.72 56.6709C399.785 56.6709 400.438 51.7912 400.463 51.0448C400.737 41.3445 401.209 28.839 401.293 26.1923C401.212 25.2872 401.326 24.3752 401.627 23.5178C401.929 22.6605 402.41 21.8777 403.04 21.2224C403.67 20.5671 404.433 20.0545 405.277 19.7192C406.122 19.3839 407.029 19.2337 407.936 19.2787L438.667 20.277C439.543 20.2754 440.41 20.4591 441.211 20.8161C442.011 21.1731 442.728 21.6952 443.312 22.3483C443.897 23.0014 444.337 23.7707 444.603 24.6057C444.87 25.4408 444.957 26.3227 444.859 27.1938C444.573 36.0077 444.203 48.1462 444.063 52.463C444.025 53.5608 443.948 57.8807 437.451 57.6692L406.72 56.6709Z" fill="white"/>
            <path id="Vector_2" d="M400.6 262.065L395.972 261.916C387.964 261.655 376.497 259.21 373.831 254.175C371.654 250.048 370.936 243.24 371.231 234.103C372.668 189.924 374.774 150.442 376.59 106.64C376.978 97.5892 380.382 88.9282 386.262 82.0365C387.587 80.4815 389.061 78.6746 390.868 76.2083C393.027 73.2724 400.018 63.7992 404.363 57.0597L404.655 56.6056L406.723 56.674L437.454 57.6723L439.79 57.747L439.945 57.9865C446.059 67.3571 452.224 75.1944 454.186 78.264C455.834 80.8454 457.184 82.7425 458.403 84.3815C463.822 91.6374 466.657 100.497 466.458 109.551C465.435 153.503 464.969 192.922 463.532 237.101C463.19 247.653 463.243 255.002 457.408 259.089C452.255 262.7 443.332 263.443 437.043 263.247L400.6 262.065Z" fill="#C5DBEF"/>
            <path id="Vector_3" d="M433.501 61.7528C437.771 68.2497 442.501 74.4014 446.908 80.7988C451.122 86.9163 455.928 92.8285 457.881 100.115C460.123 108.444 458.814 117.684 458.624 126.215C458.429 135.57 458.241 144.927 458.061 154.286C457.694 173.074 457.324 191.859 456.836 210.644C456.587 220.322 456.304 229.999 455.987 239.673C456.01 242.639 455.791 245.603 455.334 248.534C454.817 251.084 454.419 252.16 452.796 253.199C447.956 256.274 440.977 255.911 435.498 255.74C430.285 255.578 425.073 255.409 419.86 255.233L402.021 254.654C397.138 254.704 392.263 254.263 387.469 253.339C384.867 252.86 382.383 251.879 380.157 250.449C380.232 250.505 380.07 250.057 380.023 249.893C379.612 248.476 379.277 247.038 379.019 245.585C378.321 237.2 378.371 228.77 379.168 220.394C379.852 201.491 380.673 182.597 381.526 163.701C382 153.201 382.475 142.701 382.95 132.202C383.195 126.722 383.435 121.243 383.672 115.765C383.607 111.035 383.952 106.307 384.704 101.636C386.679 92.6979 392.352 86.7079 397.62 79.5735C402.155 73.4311 406.639 67.2421 410.807 60.8447C416.063 52.7585 403.144 45.2757 397.919 53.309C393.876 59.5291 389.497 65.5658 385.09 71.5495C379.856 78.6591 374.4 84.817 371.508 93.3603C368.299 102.849 368.849 113.386 368.417 123.276C367.988 133.108 367.547 142.939 367.095 152.769C366.162 173.295 365.229 193.821 364.461 214.376C363.66 224.362 363.495 234.39 363.966 244.397C364.629 251.693 366.193 258.996 372.622 263.35C383.224 270.534 397.912 269.458 410.166 269.856C422.737 270.263 435.98 271.853 448.473 269.987C456.086 268.848 463.895 265.651 467.612 258.464C471.406 251.127 470.843 242.055 471.095 234.041C471.745 213.542 472.212 193.035 472.628 172.527C472.861 161.063 473.088 149.598 473.31 138.133C473.53 127.055 474.793 115.457 473.711 104.426C471.792 84.8139 456.764 70.01 446.389 54.2327C441.133 46.2399 428.201 53.7102 433.501 61.7684V61.7528Z" fill="#211715"/>
            <path id="Vector_4" d="M406.72 49.2068C405.203 49.1695 406.45 49.2659 406.789 49.3281C406.894 49.3467 405.747 49.1259 405.753 49.0855C405.809 48.7123 407.218 49.9407 406.31 49.3001C408.011 50.5006 407.243 50.1429 406.932 49.779C408.275 51.3123 407.775 50.9826 407.498 50.5068C407.187 49.9812 407.233 49.4867 407.887 51.4709C407.404 50.0061 407.806 53.0943 407.905 52.0711C408.166 49.412 408.054 46.6565 408.138 43.985C408.331 38.0572 408.633 32.1263 408.76 26.1955C408.785 25.0012 409.295 25.6388 408.627 26.8175C408.787 26.3857 408.892 25.9353 408.938 25.477C409.006 25.0696 409.631 23.9593 408.605 26.211C408.712 25.973 408.843 25.7459 408.994 25.533C409.037 25.4739 407.88 26.7988 408.453 26.2577C409.025 25.7165 406.947 27.0165 408.107 26.5034C406.394 27.2622 407.19 26.8703 407.641 26.7117C408.81 26.3012 407.597 26.7708 407.302 26.7397C407.613 26.7739 408.017 26.7397 408.353 26.7397C409.068 26.7584 409.784 26.7864 410.502 26.8112L424.787 27.2746L437.762 27.6976C437.994 27.7327 438.23 27.74 438.465 27.7194C438.53 27.7132 438.595 27.7132 438.661 27.7194C436.611 27.8749 438.35 27.3679 438.427 27.6883L438.928 27.8376L438.035 27.4737C439.108 27.9962 437.752 27.2156 437.594 27.0694C438.458 27.8656 437.283 26.5904 437.217 26.4816C438.082 27.6976 436.822 26.578 437.152 26.0462C437.24 26.4982 437.362 26.9432 437.516 27.3773C437.451 27.312 437.413 25.3495 437.364 26.2794C437.364 26.4412 437.395 26.6122 437.389 26.7739C437.349 28.2253 437.307 29.6767 437.261 31.128C437.054 37.8872 436.841 44.6464 436.623 51.4056C436.592 52.3977 436.135 54.4845 436.757 51.586C436.58 52.4132 436.095 52.9793 437.115 51.1008C437.022 51.287 436.918 51.4677 436.804 51.6419L437.572 50.6529C437.183 51.0293 437.261 50.9919 437.793 50.5503C438.897 49.7728 437.171 50.429 438.415 50.2082C439.659 49.9874 438.455 50.2082 438.194 50.2082C437.193 50.2953 439.612 50.2829 438.458 50.1709C438.116 50.1367 437.721 50.1709 437.379 50.1709C436.826 50.1709 436.272 50.1367 435.722 50.118L406.711 49.185C404.736 49.2013 402.847 49.9929 401.451 51.3892C400.055 52.7855 399.263 54.6746 399.247 56.6491C399.287 58.6163 400.086 60.4918 401.477 61.8831C402.868 63.2744 404.744 64.0735 406.711 64.1133L435.977 65.065C439.377 65.419 442.805 64.7268 445.801 63.0807C447.495 61.9704 448.896 60.4697 449.889 58.7048C450.882 56.9399 451.436 54.9625 451.505 52.9388C452.028 46.1714 451.937 39.3012 452.152 32.5182C452.534 29.1563 452.371 25.7548 451.67 22.4447C451.015 20.1662 449.759 18.1058 448.034 16.48C446.309 14.8542 444.177 13.7229 441.864 13.2048C436.863 12.5187 431.813 12.2597 426.768 12.4303L410.213 11.8861C407.057 11.5626 403.872 12.0865 400.985 13.4038C399.256 14.3678 397.758 15.6982 396.596 17.3018C395.435 18.9054 394.638 20.7435 394.261 22.6873C393.804 25.6848 393.596 28.715 393.639 31.7469C393.476 36.4244 393.317 41.102 393.164 45.7795C392.765 49.0435 392.895 52.3505 393.549 55.5731C394.531 58.2273 396.343 60.494 398.716 62.0365C401.089 63.5789 403.896 64.3149 406.72 64.135C408.695 64.118 410.583 63.3261 411.979 61.93C413.375 60.5339 414.167 58.6452 414.184 56.6709C414.148 54.7028 413.35 52.8255 411.958 51.4336C410.566 50.0416 408.688 49.2434 406.72 49.2068Z" fill="#211715"/>
            <path id="Vector_5" d="M223.51 13.1675C220.947 13.1714 218.393 13.4592 215.893 14.0259C209.653 15.2449 203.695 17.617 198.325 21.0204C191.956 24.8946 186.122 29.5849 180.97 34.9721C178.53 33.1031 175.471 32.2305 172.412 32.5307C169.394 33.2199 166.608 34.6818 164.325 36.7728C152.893 46.7437 145.743 67.8392 156.672 99.5151C158.179 105.326 161.059 110.691 165.069 115.159C167.404 112.465 174.822 108.898 181.278 106.276C195.945 100.324 199.432 89.4541 207.216 78.4071C207.92 77.1884 209.017 76.2444 210.326 75.7294C211.515 75.5207 212.736 75.5964 213.89 75.9502C225.566 78.2952 237.726 72.7842 246.204 64.4243C246.695 63.9423 247.177 63.4478 247.647 62.9471C254.871 54.5342 260.72 45.033 264.979 34.7948C259.71 29.1373 253.762 24.1525 247.271 19.9536C241.237 14.7785 231.279 13.0493 223.51 13.1675Z" fill="#99D298"/>
            <path id="Vector_6" d="M247.625 62.9471C247.156 63.4478 246.673 63.9423 246.182 64.4244C237.704 72.7842 225.544 78.2952 213.869 75.9502C212.715 75.5964 211.493 75.5207 210.304 75.7294C208.995 76.2444 207.898 77.1884 207.194 78.4072C199.419 89.4541 195.924 100.324 181.257 106.276C173.31 109.502 163.909 114.16 164.325 116.872C165.266 121.939 167.382 126.715 170.503 130.816C173.624 134.917 177.663 138.229 182.295 140.487C191.093 144.503 200.688 146.471 210.357 146.241C220.729 145.931 231.012 144.221 240.926 141.159L252.284 137.651C268.928 129.493 281.917 115.404 288.697 98.1529C292.39 88.382 293.977 77.9407 293.352 67.5137C292.727 57.0867 289.905 46.9096 285.07 37.6499C281.749 31.3831 274.011 24.9484 268.481 29.3896C267.004 30.7817 265.862 32.4919 265.144 34.3905C260.848 44.7741 254.935 54.4122 247.625 62.9471Z" fill="#6DBF6B"/>
            <path id="Vector_7" d="M242.347 57.6693C238.013 62.4615 232.487 66.0199 226.331 67.9823C223.281 68.9215 220.073 69.2387 216.898 68.9153C212.46 68.3928 208.83 67.5717 204.843 70.2868C199.771 73.7421 196.822 80.833 193.56 85.8837C190.839 90.5417 187.049 94.4859 182.504 97.3909C176.47 100.933 169.572 102.703 163.744 106.684C161.428 108.078 159.472 109.995 158.031 112.282C157.294 114.079 156.935 116.009 156.976 117.952C157.017 119.894 157.458 121.807 158.27 123.571C160.478 129.719 164.061 135.282 168.747 139.833C173.432 144.385 179.096 147.805 185.306 149.833C199.662 154.915 215.225 154.308 229.982 151.556C243.243 149.068 256.862 145.093 267.757 136.938C279.712 128.127 289.026 116.21 294.689 102.481C300.351 88.7516 302.147 73.7338 299.88 59.0564C297.79 45.1358 290.861 22.084 273.874 20.5663C263.682 19.6582 259.845 28.4223 256.085 36.1166C252.569 43.9296 247.942 51.1931 242.347 57.6817C235.854 64.7447 246.391 75.3282 252.903 68.2373C260.596 59.2017 266.895 49.067 271.591 38.1692C271.846 37.6374 272.468 35.619 272.991 35.3857C273.386 35.2085 272.873 35.4324 272.885 35.4324C273.79 35.2956 275.964 37.6779 276.577 38.3807C279.649 42.5238 281.856 47.2434 283.064 52.2578C286.18 62.3387 286.84 73.0186 284.988 83.4063C283.136 93.7939 278.826 103.588 272.419 111.971C266.421 120.062 258.49 126.52 249.351 130.753C239.679 134.556 229.544 137.053 219.212 138.179C202.694 139.965 177.826 137.815 172.312 118.468C172.234 117.868 172.088 117.278 171.877 116.711C171.69 115.384 171.416 115.902 171.056 118.266C170.04 120.349 169.887 120.986 170.598 120.175C170.62 120.175 172.464 118.794 172.527 118.757C174.89 117.354 177.331 116.088 179.838 114.963C185.487 112.774 190.821 109.846 195.7 106.255C199.806 102.684 203.339 98.5037 206.178 93.861C207.509 91.824 208.762 89.7371 210.053 87.6751C211.051 86.0766 212.541 82.8794 214.077 82.1859L210.311 83.206C213.819 82.783 217.529 84.139 221.146 83.9182C225.273 83.7032 229.343 82.8568 233.213 81.4084C240.675 78.5356 247.404 74.0362 252.909 68.2373C259.552 61.2894 249.012 50.7183 242.347 57.6693Z" fill="#211715"/>
            <path id="Vector_8" d="M163.862 97.5309C160.307 87.9064 158.581 77.7024 158.774 67.4442C158.89 63.7222 159.506 60.0327 160.606 56.475C160.861 55.6166 161.153 54.7707 161.449 53.9279C161.573 53.5733 161.707 53.2219 161.844 52.8767C161.729 53.1721 161.331 53.987 161.949 52.6341C162.625 51.1468 163.393 49.703 164.248 48.3111C164.658 47.6487 165.1 47.008 165.538 46.3642C166.527 44.9056 165.346 46.4979 166.16 45.5711C167.149 44.3831 168.228 43.2736 169.389 42.2527C170.759 41.2184 172.284 40.4071 173.908 39.8486C174.841 39.4474 172.415 39.6247 174.02 39.8486C174.984 39.9886 172.287 39.3106 174.069 39.886C174.349 39.9762 176.029 40.5515 174.853 40.0943C173.677 39.6372 175.475 40.4209 175.699 40.5453C176.819 41.1362 177.876 41.8204 178.946 42.514C181.617 44.2649 184.199 46.1465 186.88 47.8819C195.396 53.5266 205.027 57.2739 215.119 58.8698C217.026 59.3324 219.037 59.0504 220.743 58.0813C222.449 57.1121 223.721 55.5288 224.3 53.6542C224.812 51.7459 224.552 49.7128 223.577 47.9947C222.601 46.2765 220.988 45.0115 219.087 44.4733C209.897 43.1221 201.141 39.6731 193.498 34.3936C188.372 31.0099 183.216 26.4754 177.015 25.278C167.212 23.3902 158.693 30.674 153.235 38.0293C148.182 45.2876 145.094 53.7306 144.272 62.5365C143.084 75.7485 144.862 89.0589 149.475 101.496C150.041 103.38 151.311 104.974 153.021 105.945C154.732 106.916 156.751 107.191 158.659 106.712C160.558 106.169 162.167 104.902 163.142 103.185C164.117 101.468 164.379 99.4362 163.871 97.5278L163.862 97.5309Z" fill="#211715"/>
            <path id="Vector_9" d="M202.094 27.4643C203.931 26.3028 205.833 25.2488 207.792 24.3076C208.852 23.7975 206.165 24.8985 208.072 24.177C208.479 24.0246 208.88 23.866 209.288 23.7198C210.358 23.331 211.44 22.9858 212.531 22.6624C214.637 22.0404 216.777 21.4183 218.932 20.9892C219.304 20.8662 219.691 20.7981 220.083 20.787C219.806 20.6999 218.481 20.9549 219.601 20.8616C220.534 20.7839 221.436 20.6999 222.359 20.6626C224.204 20.5911 226.051 20.6222 227.892 20.7559C228.433 20.7963 228.971 20.843 229.509 20.899C230.184 20.9705 230.89 21.1011 229.82 20.9238C230.809 21.0856 231.795 21.2566 232.772 21.4712C234.827 21.9035 236.84 22.5186 238.787 23.3093C237.807 22.8987 238.513 23.1973 239.063 23.4928C239.53 23.7447 239.996 23.981 240.46 24.2516C240.817 24.4631 241.16 24.7088 241.523 24.914C243.2 25.8657 240.516 24.0152 241.978 25.2251C243.403 26.5751 245.292 27.3275 247.255 27.3275C249.219 27.3275 251.107 26.5751 252.533 25.2251C253.918 23.8177 254.695 21.9221 254.695 19.9473C254.695 17.9725 253.918 16.0769 252.533 14.6695C236.488 1.3336 211.278 4.01136 194.558 14.5762C193.712 15.071 192.972 15.7277 192.379 16.5086C191.787 17.2896 191.354 18.1796 191.105 19.1279C190.857 20.0762 190.798 21.0641 190.931 22.0353C191.064 23.0064 191.387 23.9418 191.882 24.7881C192.377 25.6343 193.034 26.3748 193.815 26.9673C194.596 27.5598 195.486 27.9926 196.434 28.2411C197.382 28.4897 198.37 28.549 199.341 28.4157C200.312 28.2824 201.248 27.9591 202.094 27.4643Z" fill="#211715"/>
            <path id="Vector_10" d="M151.073 137.607C152.533 136.849 153.936 135.988 155.272 135.029C161.495 130.521 166.153 124.182 168.596 116.897C170.202 112.398 170.856 107.615 170.517 102.85C170.178 98.0854 168.852 93.4431 166.624 89.2176C165.097 86.5492 157.169 75.3872 143.672 74.4635C138.44 73.5832 133.094 73.6464 127.885 74.6501C121.712 75.5948 115.663 77.2177 109.847 79.4893C104.402 81.3094 99.5079 84.4798 95.6211 88.7044C93.1134 91.864 91.2885 95.5094 90.2617 99.4103C89.235 103.311 89.0287 107.383 89.656 111.367C90.3275 116.272 92.0055 120.984 94.5846 125.209C97.1637 129.434 100.588 133.08 104.643 135.918C115.292 143.382 126.632 142.471 133.698 141.899C139.725 141.695 145.644 140.233 151.073 137.607Z" fill="#F3736F"/>
            <path id="Vector_11" d="M154.84 144.064C162.152 140.031 168.197 134.041 172.296 126.766C176.396 119.491 178.388 111.218 178.05 102.874C177.591 93.8742 173.949 85.3303 167.775 78.7664C161.601 72.2025 153.295 68.0454 144.34 67.0368C133.291 65.8165 122.108 67.1519 111.657 70.9399C101.045 74.5351 90.5363 79.9591 85.4949 90.583C77.8908 106.587 82.8607 126.311 95.6368 138.145C102.949 144.827 112.301 148.845 122.181 149.55C133.361 150.637 144.63 148.74 154.837 144.051C156.532 143.039 157.763 141.402 158.263 139.492C158.764 137.582 158.495 135.551 157.515 133.838C156.488 132.159 154.851 130.944 152.948 130.444C151.045 129.945 149.023 130.202 147.304 131.16C140.702 133.922 133.564 135.163 126.417 134.792C122.943 134.84 119.483 134.358 116.154 133.365C114.279 132.784 112.48 131.985 110.792 130.983C110.207 130.641 106.562 127.981 108.562 129.608C104.472 126.592 101.254 122.548 99.2326 117.886C97.2115 113.224 96.4602 108.11 97.055 103.064C97.7111 99.4285 99.3217 96.033 101.722 93.2252C104.122 90.4173 107.226 88.2979 110.714 87.0842C118.689 83.6385 127.227 81.6791 135.906 81.3026C142.467 80.8372 148.987 82.6581 154.358 86.456C155.427 87.3378 156.435 88.2917 157.375 89.311C157.723 89.6811 159.813 92.2936 158.777 90.866C160.518 93.2469 161.779 95.9436 162.491 98.806C163.683 104.441 163.212 110.3 161.135 115.672C161.044 115.955 160.391 117.557 161.041 116.03C160.749 116.717 160.419 117.395 160.083 118.06C159.256 119.73 158.29 121.328 157.197 122.837C154.559 126.309 151.18 129.15 147.307 131.154C138.851 135.732 146.381 148.623 154.84 144.064Z" fill="#211715"/>
            <path id="Vector_12" d="M119.488 104.899C121.457 105.897 123.313 107.094 125.269 108.108C127.016 109.096 129.078 109.366 131.02 108.861C132.87 108.295 134.454 107.08 135.48 105.44C136.749 103.446 138.133 101.512 139.486 99.5741C140.021 98.7442 140.327 97.7868 140.372 96.7999C140.593 95.8136 140.547 94.786 140.238 93.8236C139.645 91.987 138.436 90.4109 136.817 89.3607C135.956 88.8623 135.004 88.5392 134.017 88.41C133.03 88.2809 132.027 88.3482 131.067 88.608L129.281 89.3607C128.176 90.0118 127.255 90.9332 126.604 92.0384C125.251 93.9791 123.87 95.9105 122.601 97.9071L132.811 95.2293C130.858 94.2124 129.002 93.015 127.033 92.0198C126.204 91.4812 125.246 91.1751 124.259 91.1334C123.288 90.9579 122.291 90.9985 121.338 91.2522C120.385 91.5059 119.499 91.9665 118.745 92.6014C117.934 93.1235 117.271 93.8454 116.819 94.6975C116.321 95.559 115.998 96.5107 115.869 97.4978C115.74 98.4848 115.809 99.4875 116.07 100.448C116.583 102.325 117.811 103.926 119.491 104.908L119.488 104.899Z" fill="#211715"/>
            <path id="Vector_13" d="M342.031 107.275C338.596 117.334 332.889 126.467 325.353 133.964C317.817 141.462 308.655 147.121 298.577 150.504C281.007 156.553 262.023 157.168 244.098 152.268C241.015 151.63 238.094 150.37 235.515 148.564C234.236 147.645 233.216 146.413 232.551 144.986C231.886 143.559 231.599 141.985 231.717 140.415C232.127 138.682 232.992 137.09 234.224 135.804C235.456 134.517 237.01 133.584 238.724 133.101C242.154 132.179 245.662 131.572 249.202 131.287C259.981 129.217 269.805 123.724 277.214 115.625C287.487 104.981 295.005 91.9875 299.112 77.7758C302.844 64.9623 305.146 50.6809 314.454 40.4551C320.191 35.5921 327.286 32.6135 334.775 31.9242L336.871 32.5649C349.28 36.7821 349.623 59.0004 349.137 70.6475C348.67 83.1498 346.273 95.5046 342.031 107.275Z" fill="#FFDA71"/>
            <path id="Vector_14" d="M334.837 105.29C327.55 127.117 307.998 141.585 285.985 146.343C272.77 149.049 259.104 148.613 246.089 145.068C244.437 144.63 236.448 142.58 240.531 140.419C242.882 139.51 245.37 139.008 247.889 138.935C251.486 138.548 255.031 137.776 258.464 136.634C283.385 127.851 299.971 102.485 306.81 78.0121C309.839 67.1673 311.77 53.99 319.928 45.5556C320.907 44.5417 319.862 45.4498 320.923 44.7283C321.96 44.0338 323.032 43.3943 324.136 42.8125C326.211 41.6867 328.4 40.7859 330.667 40.1254C331.351 39.9264 332.695 39.6527 333.03 39.4878C333.904 39.0649 334.156 39.3852 333.03 39.211C333.316 39.2637 333.594 39.3482 333.861 39.463C335.323 40.1223 335.326 39.8393 336.417 40.8843C338.877 44.018 340.41 47.778 340.843 51.7384C341.619 56.475 341.944 61.2746 341.813 66.0726C341.532 79.4279 339.189 92.6596 334.868 105.3C331.92 114.465 346.329 118.39 349.265 109.268C353.861 95.5947 356.377 81.3084 356.729 66.8874C356.888 56.3443 356.297 44.1156 350.549 34.9161C347.772 30.2317 343.345 26.7534 338.137 25.1629C332.181 23.4275 325.874 25.7227 320.41 28.1112C314.9 30.3158 310.072 33.9381 306.415 38.6108C302.066 44.6435 298.794 51.3828 296.742 58.5307C294.565 65.4693 293.094 72.6193 290.774 79.5174C288.456 86.276 285.278 92.7085 281.319 98.6567C273.659 110.319 262.659 121.205 248.462 123.848C241.069 125.232 233.555 125.241 228.162 131.356C226.818 132.912 225.794 134.718 225.148 136.671C224.503 138.624 224.248 140.685 224.4 142.736C224.552 144.787 225.107 146.788 226.034 148.624C226.96 150.46 228.239 152.096 229.798 153.437C235.546 158.703 244.157 160.254 251.603 161.455C259.55 162.809 267.626 163.239 275.672 162.736C308.455 160.391 338.579 141.165 349.234 109.243C352.294 100.125 337.87 96.2059 334.837 105.29Z" fill="#211715"/>
            <path id="Vector_15" d="M333.438 9.26122C331.967 15.3445 330.583 21.4526 329.109 27.5359C328.615 29.4795 328.884 31.5384 329.861 33.2895C330.602 34.5584 331.701 35.5805 333.02 36.2278C334.339 36.875 335.819 37.1186 337.276 36.9279C338.733 36.7373 340.101 36.121 341.209 35.1562C342.317 34.1914 343.116 32.9211 343.505 31.5043C344.976 25.4211 346.363 19.3129 347.834 13.2297C348.329 11.2861 348.059 9.22709 347.082 7.47605C346.341 6.20715 345.243 5.18504 343.924 4.53781C342.605 3.89058 341.124 3.64701 339.667 3.83762C338.21 4.02824 336.842 4.64455 335.734 5.60934C334.626 6.57413 333.827 7.84448 333.438 9.26122Z" fill="#211715"/>
            <path id="Vector_16" d="M320.09 14.6416C331.982 17.1776 344.143 18.2223 356.294 17.7516C358.264 17.7219 360.145 16.926 361.539 15.5326C362.932 14.1392 363.728 12.2579 363.758 10.2875C363.731 8.31639 362.935 6.43371 361.541 5.03979C360.148 3.64588 358.265 2.8507 356.294 2.82336C350.67 3.06503 345.036 2.96116 339.425 2.51235C337.994 2.39832 336.566 2.26044 335.139 2.09871C334.482 2.02407 333.825 1.94425 333.167 1.85924C334.52 2.02718 333.062 1.84369 332.545 1.76594C329.706 1.34608 326.882 0.83292 324.077 0.238899C322.169 -0.250936 320.145 0.0186573 318.432 0.990912C316.719 1.96317 315.45 3.56221 314.893 5.45135C314.396 7.35907 314.662 9.38544 315.635 11.0998C316.609 12.8142 318.212 14.0814 320.105 14.6322L320.09 14.6416Z" fill="#211715"/>
            <path id="Vector_17" d="M49.9407 97.9817C49.9237 92.5204 51.5598 87.1818 54.6338 82.6678C55.9319 80.9953 57.5916 79.6381 59.4885 78.6978C61.3853 77.7574 63.4703 77.2582 65.5874 77.2377C67.2125 77.2031 68.7847 76.654 70.0778 75.6693C71.371 74.6846 72.3185 73.3151 72.7841 71.7577C73.7232 68.1955 75.4015 64.8709 77.7099 61.9999C80.0182 59.129 82.905 56.776 86.1825 55.094C89.46 53.4119 93.0548 52.4386 96.7332 52.2371C100.412 52.0357 104.091 52.6106 107.533 53.9247C109.441 54.4326 111.473 54.171 113.19 53.1962C114.908 52.2214 116.174 50.6112 116.717 48.7122C117.201 46.8042 116.928 44.7829 115.956 43.0712C114.984 41.3595 113.388 40.0899 111.501 39.5282C106.164 37.7207 100.514 37.0242 94.8972 37.4815C89.2809 37.9388 83.8175 39.5403 78.843 42.1874C73.8686 44.8346 69.4883 48.4714 65.9716 52.8742C62.4549 57.2771 59.8761 62.3528 58.3938 67.7893L65.5905 62.3094C61.4501 62.4089 57.375 63.3634 53.621 65.113C49.8671 66.8626 46.5155 69.3695 43.7766 72.4762C38.1488 79.7927 35.0668 88.7483 35 97.9786C35 99.9582 35.7864 101.857 37.1862 103.257C38.586 104.656 40.4845 105.443 42.4641 105.443C44.4437 105.443 46.3423 104.656 47.7421 103.257C49.1419 101.857 49.9283 99.9582 49.9283 97.9786L49.9407 97.9817Z" fill="#211715"/>
        </g>
    </g>
</svg>
