<svg xmlns="http://www.w3.org/2000/svg" version="1.1" xmlns:xlink="http://www.w3.org/1999/xlink" xmlns:svgjs="http://svgjs.dev/svgjs" width="432" height="273"><svg width="432" height="273" viewBox="0 0 432 273" fill="none" xmlns="http://www.w3.org/2000/svg">
<path d="M359.669 260.785L355.696 260.471C348.822 259.924 339.065 256.989 336.982 251.664C335.282 247.299 334.947 240.198 335.581 230.71C338.651 184.837 342.101 143.869 345.482 98.3998C346.191 89.0049 349.478 80.119 354.82 73.1572C356.024 71.5864 357.366 69.7587 359.022 67.2572C361 64.2795 367.404 54.6726 371.42 47.8163L371.69 47.3543L373.465 47.4965L399.844 49.59L401.849 49.7479L401.973 50.0021C406.841 59.9527 411.815 68.3112 413.375 71.5694C414.684 74.3093 415.766 76.3277 416.746 78.0733C421.104 85.8017 423.173 95.109 422.626 104.513C419.921 150.164 417.882 191.124 414.812 236.997C414.079 247.955 413.82 255.596 408.634 259.643C404.053 263.219 396.351 263.685 390.952 263.266L359.669 260.785Z" fill="#C5DBEF"></path>
<path d="M359.669 260.785L355.696 260.471C348.822 259.924 339.065 256.989 336.982 251.664C335.282 247.299 334.947 240.198 335.581 230.71C338.651 184.837 342.101 143.869 345.482 98.3998C346.191 89.0049 349.478 80.119 354.82 73.1572C356.024 71.5864 357.366 69.7587 359.022 67.2572C361 64.2795 367.404 54.6726 371.42 47.8163L371.69 47.3543L373.465 47.4965L399.844 49.59L401.849 49.7479L401.973 50.0021C406.841 59.9527 411.815 68.3112 413.375 71.5694C414.684 74.3093 415.766 76.3277 416.746 78.0733C421.104 85.8017 423.173 95.109 422.626 104.513C419.921 150.164 417.882 191.124 414.812 236.997C414.079 247.955 413.82 255.596 408.634 259.643C404.053 263.219 396.351 263.685 390.952 263.266L359.669 260.785Z" fill="#C5DBEF"></path>
<path d="M373.248 47.3691C367.325 47.1324 368.086 42.0765 368.138 41.3006C368.775 31.2151 369.699 18.217 369.881 15.4655C369.849 14.5208 369.984 13.5756 370.277 12.6936C370.57 11.8117 371.014 11.0135 371.579 10.3531C372.144 9.69261 372.817 9.18519 373.552 8.86506C374.287 8.54493 375.068 8.41953 375.841 8.49734L402.043 10.585C402.792 10.6132 403.524 10.834 404.193 11.2328C404.862 11.6316 405.452 12.1994 405.924 12.899C406.396 13.5986 406.74 14.4142 406.933 15.2923C407.126 16.1705 407.163 17.0913 407.043 17.9944C406.432 27.1571 405.611 39.7767 405.312 44.2643C405.235 45.4056 404.989 49.8985 399.449 49.4567L373.248 47.3691Z" fill="white"></path>
<path d="M396.049 53.7029C399.411 60.6038 403.178 67.1614 406.661 73.9635C409.99 80.468 413.831 86.7791 415.189 94.4227C416.75 103.16 415.253 112.723 414.737 121.588C414.183 131.309 413.634 141.032 413.092 150.758C411.999 170.283 410.904 189.803 409.708 209.32C409.094 219.376 408.451 229.428 407.78 239.477C407.676 242.562 407.367 245.636 406.856 248.669C406.311 251.303 405.928 252.408 404.504 253.433C400.26 256.467 394.34 255.852 389.687 255.488C385.26 255.142 380.834 254.789 376.409 254.429L361.261 253.221C357.106 253.107 352.979 252.483 348.94 251.359C346.746 250.773 344.675 249.668 342.841 248.106C342.902 248.167 342.783 247.695 342.751 247.522C342.459 246.035 342.234 244.529 342.075 243.009C341.83 234.266 342.223 225.502 343.249 216.819C344.616 197.186 346.1 177.567 347.61 157.947C348.45 147.045 349.29 136.143 350.13 125.241C350.566 119.551 350.998 113.862 351.426 108.174C351.568 103.253 352.058 98.3488 352.892 93.5172C354.943 84.2899 360.016 78.254 364.793 71.0143C368.905 64.7812 372.976 58.498 376.786 51.9873C381.592 43.7576 370.916 35.5376 366.139 43.7134C362.442 50.044 358.467 56.1723 354.47 62.2447C349.723 69.4597 344.828 75.6777 342.013 84.4631C338.889 94.2209 338.919 105.196 338.141 115.466C337.367 125.675 336.584 135.883 335.791 146.089C334.145 167.401 332.498 188.714 330.991 210.061C329.895 220.419 329.338 230.84 329.323 241.262C329.583 248.872 330.61 256.518 335.896 261.264C344.615 269.095 357.152 268.475 367.557 269.306C378.231 270.157 389.427 272.259 400.13 270.743C406.652 269.819 413.427 266.759 416.886 259.412C420.418 251.912 420.316 242.459 420.863 234.134C422.268 212.841 423.517 191.532 424.723 170.221C425.397 158.308 426.067 146.394 426.732 134.479C427.38 122.967 428.936 110.951 428.473 99.443C427.656 78.9843 415.491 63.0798 407.323 46.3211C403.185 37.8312 391.876 45.1597 396.049 53.7191L396.049 53.7029Z" fill="#211715"></path>
<path d="M374.014 39.7042C372.713 39.613 373.779 39.7569 374.067 39.8337C374.157 39.8569 373.182 39.586 373.189 39.5438C373.253 39.1544 374.41 40.4909 373.658 39.788C375.066 41.1051 374.422 40.7037 374.171 40.3115C375.259 41.9653 374.843 41.6025 374.626 41.094C374.381 40.5322 374.442 40.0153 374.919 42.1183C374.567 40.5658 374.782 43.8179 374.91 42.7484C375.245 39.969 375.265 37.0757 375.449 34.2773C375.863 28.068 376.37 21.8593 376.728 15.6445C376.799 14.3931 377.21 15.0791 376.587 16.2922C376.742 15.845 376.851 15.3762 376.91 14.8973C376.986 14.4724 377.568 13.3296 376.594 15.6555C376.696 15.4096 376.817 15.176 376.955 14.9579C376.995 14.8974 375.947 16.2471 376.461 15.6992C376.974 15.1514 375.138 16.4434 376.155 15.945C374.653 16.682 375.352 16.2984 375.746 16.1475C376.766 15.7571 375.706 16.208 375.454 16.1653C375.719 16.2118 376.067 16.1898 376.355 16.2013C376.968 16.2454 377.58 16.2992 378.196 16.35L390.428 17.3254L401.539 18.2137C401.737 18.2584 401.939 18.2742 402.14 18.2606C402.197 18.2564 402.253 18.2586 402.309 18.2673C400.544 18.3601 402.057 17.8881 402.11 18.2267L402.533 18.4004L401.783 17.9882C402.681 18.5729 401.551 17.7079 401.421 17.5491C402.129 18.4136 401.174 17.0363 401.123 16.9199C401.813 18.2246 400.78 17.0074 401.085 16.4611C401.142 16.9381 401.227 17.4089 401.341 17.8693C401.288 17.7986 401.338 15.7395 401.257 16.7129C401.25 16.8825 401.269 17.0629 401.257 17.2323C401.163 18.7528 401.065 20.2733 400.965 21.7936C400.504 28.8742 400.039 35.9545 399.569 43.0347C399.501 44.074 399.021 46.2466 399.676 43.2285C399.489 44.0899 399.049 44.6668 400.003 42.732C399.915 42.924 399.819 43.11 399.714 43.2888L400.414 42.278C400.065 42.6593 400.133 42.6228 400.608 42.178C401.587 41.4005 400.079 42.0295 401.155 41.8406C402.232 41.6517 401.19 41.8419 400.966 41.833C400.104 41.89 402.179 41.9599 401.194 41.8029C400.902 41.7553 400.562 41.7777 400.269 41.7659C399.794 41.747 399.321 41.6921 398.849 41.6537L374.006 39.681C372.312 39.6304 370.659 40.3957 369.403 41.812C368.147 43.2283 367.389 45.1821 367.292 47.2521C367.244 49.3162 367.85 51.3103 368.985 52.8168C370.12 54.3234 371.695 55.2257 373.381 55.3348L398.442 57.3357C401.343 57.8235 404.312 57.2151 406.951 55.5918C408.45 54.4855 409.715 52.9599 410.641 51.1433C411.566 49.3267 412.124 47.2722 412.268 45.1525C413 38.0741 413.211 30.867 413.679 23.7617C414.147 20.2495 414.15 16.6771 413.687 13.1822C413.221 10.7705 412.231 8.56696 410.819 6.803C409.407 5.03904 407.627 3.77968 405.664 3.1571C401.404 2.26634 397.083 1.82159 392.749 1.82767L378.573 0.689576C375.88 0.242204 373.126 0.682393 370.595 1.96478C369.071 2.9164 367.731 4.2601 366.667 5.90181C365.604 7.54352 364.844 9.44358 364.439 11.469C363.921 14.5964 363.616 17.7668 363.526 20.9475C363.189 25.8467 362.857 30.7461 362.53 35.6457C362.051 39.0547 362.024 42.5268 362.45 45.9284C363.181 48.7453 364.64 51.1843 366.611 52.883C368.581 54.5818 370.958 55.4497 373.388 55.3579C375.082 55.4077 376.735 54.6421 377.991 53.226C379.247 51.8098 380.005 49.8566 380.103 47.7869C380.154 45.7218 379.548 43.726 378.412 42.2187C377.277 40.7114 375.7 39.8101 374.014 39.7042Z" fill="#211715"></path>
<path d="M191.882 70.8669C189.274 70.8719 186.674 71.2407 184.13 71.9665C177.778 73.5282 171.713 76.5669 166.247 80.9268C159.765 85.8897 153.826 91.8982 148.582 98.7994C146.098 96.4052 142.984 95.2874 139.87 95.6719C136.799 96.5548 133.962 98.4275 131.639 101.106C120.002 113.879 112.724 140.903 123.848 181.481C125.383 188.925 128.314 195.797 132.396 201.521C134.773 198.071 142.323 193.501 148.895 190.143C163.825 182.517 167.374 168.593 175.297 154.441C176.014 152.88 177.13 151.671 178.463 151.011C179.673 150.743 180.916 150.84 182.091 151.294C193.975 154.298 206.353 147.238 214.983 136.529C215.483 135.911 215.973 135.278 216.451 134.636C223.805 123.859 229.759 111.688 234.094 98.5723C228.73 91.3248 222.676 84.9391 216.068 79.5602C209.927 72.9307 199.79 70.7155 191.882 70.8669Z" fill="#99D298"></path>
<path d="M216.429 134.636C215.951 135.278 215.46 135.911 214.96 136.529C206.331 147.238 193.953 154.298 182.069 151.294C180.894 150.84 179.651 150.743 178.441 151.011C177.108 151.67 175.992 152.88 175.275 154.441C167.361 168.592 163.803 182.517 148.873 190.142C140.785 194.274 131.215 200.242 131.639 203.716C132.597 210.207 134.751 216.325 137.927 221.578C141.104 226.832 145.215 231.075 149.931 233.967C158.886 239.113 168.653 241.633 178.495 241.338C189.052 240.941 199.519 238.751 209.61 234.828L221.171 230.334C238.113 219.884 251.334 201.835 258.235 179.736C261.995 167.219 263.61 153.843 262.974 140.486C262.338 127.129 259.465 114.092 254.544 102.23C251.163 94.2016 243.287 85.9586 237.658 91.6478C236.154 93.4312 234.993 95.622 234.262 98.0542C229.888 111.356 223.87 123.703 216.429 134.636Z" fill="#6DBF6B"></path>
<path d="M211.057 127.875C206.645 134.014 201.02 138.573 194.754 141.086C191.649 142.29 188.384 142.696 185.152 142.282C180.635 141.612 176.94 140.56 172.882 144.039C167.719 148.465 164.718 157.549 161.397 164.019C158.627 169.986 154.77 175.038 150.143 178.76C144.001 183.298 136.98 185.565 131.047 190.664C128.69 192.45 126.698 194.906 125.232 197.836C124.482 200.138 124.116 202.611 124.158 205.099C124.2 207.587 124.648 210.037 125.476 212.298C127.722 220.174 131.37 227.299 136.139 233.13C140.909 238.96 146.674 243.342 152.995 245.94C167.608 252.45 183.449 251.673 198.47 248.147C211.969 244.959 225.831 239.868 236.921 229.422C249.09 218.134 258.57 202.868 264.335 185.28C270.099 167.693 271.926 148.454 269.619 129.652C267.492 111.819 260.439 82.2892 243.148 80.345C232.774 79.1816 228.867 90.4088 225.04 100.265C221.461 110.274 216.752 119.579 211.057 127.891C204.447 136.939 215.172 150.497 221.801 141.413C229.632 129.838 236.043 116.855 240.824 102.895C241.084 102.214 241.717 99.628 242.249 99.3292C242.651 99.1021 242.128 99.3889 242.141 99.3889C243.062 99.2136 245.275 102.265 245.899 103.166C249.026 108.473 251.272 114.519 252.502 120.943C255.674 133.857 256.345 147.538 254.46 160.845C252.575 174.152 248.189 186.698 241.666 197.437C235.561 207.802 227.488 216.075 218.186 221.497C208.341 226.369 198.024 229.569 187.507 231.011C170.694 233.298 145.381 230.545 139.769 205.76C139.689 204.991 139.54 204.236 139.325 203.509C139.136 201.809 138.857 202.473 138.49 205.501C137.456 208.17 137.3 208.986 138.024 207.947C138.047 207.947 139.924 206.178 139.987 206.131C142.393 204.334 144.877 202.711 147.43 201.27C153.18 198.467 158.609 194.715 163.575 190.115C167.754 185.54 171.351 180.185 174.24 174.238C175.595 171.628 176.871 168.955 178.184 166.314C179.201 164.266 180.717 160.17 182.281 159.282L178.447 160.588C182.018 160.047 185.795 161.784 189.476 161.501C193.677 161.225 197.82 160.141 201.759 158.286C209.355 154.606 216.204 148.842 221.808 141.413C228.57 132.513 217.841 118.971 211.057 127.875Z" fill="#211715"></path>
<path d="M131.167 178.939C127.549 166.61 125.792 153.538 125.988 140.397C126.106 135.629 126.734 130.903 127.853 126.345C128.113 125.246 128.41 124.162 128.711 123.082C128.838 122.628 128.974 122.178 129.113 121.736C128.996 122.114 128.591 123.158 129.221 121.425C129.908 119.52 130.69 117.67 131.56 115.887C131.978 115.038 132.427 114.218 132.874 113.393C133.88 111.524 132.678 113.564 133.507 112.377C134.513 110.855 135.612 109.434 136.793 108.126C138.188 106.801 139.74 105.762 141.393 105.046C142.342 104.532 139.873 104.759 141.507 105.046C142.488 105.226 139.743 104.357 141.557 105.094C141.842 105.21 143.552 105.947 142.355 105.361C141.158 104.775 142.988 105.779 143.216 105.939C144.356 106.696 145.432 107.572 146.521 108.461C149.24 110.704 151.868 113.114 154.597 115.337C163.266 122.568 173.069 127.369 183.341 129.413C185.282 130.006 187.329 129.644 189.066 128.403C190.802 127.161 192.097 125.133 192.687 122.732C193.208 120.287 192.943 117.683 191.95 115.482C190.957 113.281 189.316 111.66 187.381 110.971C178.026 109.24 169.113 104.821 161.333 98.0583C156.116 93.7236 150.868 87.9148 144.555 86.3809C134.577 83.9626 125.906 93.2933 120.35 102.716C115.207 112.014 112.063 122.83 111.227 134.11C110.018 151.035 111.827 168.086 116.523 184.019C117.099 186.432 118.392 188.474 120.133 189.718C121.874 190.962 123.929 191.314 125.871 190.7C127.804 190.004 129.442 188.382 130.434 186.182C131.427 183.982 131.693 181.38 131.177 178.935L131.167 178.939Z" fill="#211715"></path>
<path d="M170.083 89.1816C171.953 87.6936 173.889 86.3434 175.883 85.1378C176.962 84.4844 174.227 85.8947 176.168 84.9704C176.583 84.7752 176.991 84.572 177.406 84.3848C178.495 83.8867 179.596 83.4445 180.707 83.0302C182.851 82.2334 185.029 81.4365 187.222 80.8867C187.601 80.7292 187.995 80.6419 188.394 80.6278C188.112 80.5162 186.763 80.8429 187.903 80.7234C188.853 80.6238 189.771 80.5162 190.711 80.4684C192.589 80.3768 194.469 80.4167 196.343 80.5879C196.894 80.6397 197.441 80.6995 197.989 80.7712C198.676 80.8628 199.395 81.0302 198.306 80.8031C199.312 81.0102 200.316 81.2294 201.31 81.5043C203.402 82.058 205.451 82.846 207.432 83.8589C206.435 83.333 207.154 83.7154 207.714 84.0939C208.189 84.4166 208.664 84.7194 209.135 85.066C209.5 85.337 209.848 85.6517 210.218 85.9146C211.924 87.1338 209.192 84.7632 210.68 86.3131C212.131 88.0425 214.054 89.0064 216.053 89.0064C218.051 89.0064 219.974 88.0425 221.425 86.3131C222.835 84.5102 223.625 82.0819 223.625 79.5521C223.625 77.0223 222.835 74.5939 221.425 72.7911C205.093 55.7073 179.432 59.1376 162.413 72.6715C161.552 73.3054 160.798 74.1466 160.195 75.147C159.592 76.1475 159.151 77.2876 158.898 78.5024C158.645 79.7171 158.585 80.9827 158.72 82.2268C158.856 83.4709 159.185 84.6692 159.689 85.7533C160.192 86.8374 160.861 87.786 161.656 88.5449C162.451 89.3039 163.357 89.8584 164.322 90.1768C165.287 90.4951 166.293 90.5711 167.281 90.4003C168.27 90.2296 169.222 89.8155 170.083 89.1816Z" fill="#211715"></path>
<path d="M118.15 230.278C119.636 229.307 121.064 228.203 122.424 226.975C128.758 221.201 133.499 213.08 135.986 203.748C137.621 197.985 138.287 191.857 137.941 185.754C137.596 179.65 136.246 173.703 133.979 168.29C132.424 164.871 124.355 150.572 110.616 149.389C105.291 148.261 99.8487 148.342 94.5466 149.628C88.2637 150.838 82.1061 152.917 76.1855 155.827C70.6437 158.159 65.6619 162.22 61.7056 167.632C59.153 171.68 57.2955 176.35 56.2503 181.347C55.2052 186.344 54.9953 191.56 55.6338 196.664C56.3173 202.947 58.0253 208.983 60.6505 214.395C63.2758 219.808 66.7617 224.478 70.8893 228.115C81.7287 237.676 93.2708 236.509 100.463 235.776C106.599 235.514 112.623 233.642 118.15 230.278Z" fill="#F3736F"></path>
<path d="M121.984 238.549C129.427 233.383 135.58 225.71 139.752 216.39C143.925 207.07 145.953 196.472 145.61 185.784C145.142 174.255 141.435 163.31 135.15 154.901C128.866 146.493 120.412 141.167 111.297 139.875C100.049 138.312 88.6668 140.023 78.0282 144.875C67.2268 149.481 56.5299 156.429 51.3983 170.039C43.6582 190.541 48.717 215.808 61.7217 230.967C69.1643 239.527 78.6844 244.674 88.7409 245.577C100.121 246.97 111.591 244.54 121.981 238.533C123.707 237.237 124.959 235.139 125.469 232.692C125.978 230.246 125.705 227.645 124.706 225.449C123.661 223.3 121.996 221.742 120.058 221.103C118.121 220.463 116.063 220.792 114.313 222.019C107.593 225.557 100.327 227.147 93.0526 226.673C89.5168 226.733 85.9943 226.116 82.6058 224.844C80.6976 224.1 78.8658 223.076 77.1481 221.792C76.553 221.354 72.8428 217.947 74.8783 220.031C70.7154 216.168 67.439 210.987 65.3818 205.015C63.3246 199.043 62.5598 192.491 63.1652 186.027C63.8331 181.37 65.4725 177.02 67.9156 173.423C70.3588 169.826 73.5177 167.111 77.069 165.557C85.1865 161.143 93.8766 158.633 102.711 158.15C109.39 157.554 116.027 159.887 121.493 164.752C122.582 165.881 123.608 167.103 124.564 168.409C124.919 168.883 127.046 172.23 125.992 170.401C127.764 173.451 129.047 176.906 129.772 180.573C130.985 187.791 130.506 195.297 128.391 202.178C128.299 202.541 127.635 204.593 128.296 202.637C127.999 203.517 127.663 204.386 127.321 205.238C126.479 207.377 125.496 209.424 124.384 211.358C121.698 215.805 118.259 219.444 114.317 222.011C105.709 227.876 113.373 244.39 121.984 238.549Z" fill="#211715"></path>
<path d="M85.9995 188.378C88.0034 189.656 89.8933 191.19 91.8846 192.489C93.6624 193.754 95.7613 194.1 97.7379 193.453C99.6212 192.728 101.233 191.172 102.278 189.071C103.569 186.517 104.978 184.039 106.355 181.557C106.9 180.494 107.212 179.267 107.257 178.003C107.483 176.74 107.436 175.423 107.121 174.19C106.517 171.837 105.287 169.818 103.639 168.473C102.762 167.835 101.793 167.421 100.789 167.255C99.7841 167.09 98.7634 167.176 97.7854 167.509L95.9683 168.473C94.8433 169.307 93.9054 170.488 93.2426 171.903C91.8656 174.389 90.46 176.864 89.1684 179.421L99.5614 175.991C97.5733 174.688 95.6834 173.154 93.6795 171.879C92.836 171.189 91.8608 170.797 90.8557 170.744C89.8678 170.519 88.8527 170.571 87.8826 170.896C86.9125 171.221 86.0112 171.811 85.2429 172.624C84.4177 173.293 83.7429 174.218 83.2834 175.31C82.7758 176.413 82.447 177.632 82.316 178.897C82.1851 180.161 82.2545 181.446 82.5204 182.676C83.0429 185.081 84.2929 187.131 86.0027 188.389L85.9995 188.378Z" fill="#211715"></path>
<path d="M312.524 191.421C309.027 204.308 303.218 216.008 295.547 225.612C287.877 235.216 278.55 242.466 268.293 246.8C250.409 254.549 231.084 255.336 212.839 249.059C209.701 248.242 206.727 246.627 204.102 244.314C202.801 243.137 201.762 241.559 201.085 239.731C200.408 237.903 200.116 235.887 200.237 233.876C200.653 231.655 201.535 229.616 202.789 227.968C204.043 226.32 205.624 225.125 207.369 224.505C210.861 223.325 214.43 222.547 218.034 222.182C229.006 219.53 239.006 212.494 246.548 202.119C257.005 188.483 264.656 171.838 268.837 153.632C272.636 137.218 274.979 118.923 284.454 105.823C290.293 99.5936 297.515 95.778 305.138 94.8949L307.272 95.7156C319.903 101.118 320.251 129.58 319.758 144.501C319.281 160.517 316.841 176.344 312.524 191.421Z" fill="#FFDA71"></path>
<path d="M305.202 188.879C297.785 216.84 277.882 235.374 255.475 241.469C242.024 244.936 228.113 244.377 214.865 239.836C213.185 239.274 205.052 236.649 209.208 233.88C211.601 232.716 214.134 232.073 216.698 231.979C220.36 231.483 223.968 230.495 227.462 229.031C252.829 217.78 269.711 185.286 276.673 153.935C279.756 140.043 281.722 123.162 290.025 112.357C291.023 111.058 289.959 112.222 291.039 111.297C292.094 110.408 293.185 109.588 294.309 108.843C296.421 107.401 298.65 106.247 300.957 105.401C301.653 105.146 303.021 104.795 303.363 104.584C304.252 104.042 304.509 104.453 303.363 104.23C303.653 104.297 303.937 104.405 304.208 104.552C305.696 105.397 305.699 105.034 306.81 106.373C309.314 110.388 310.874 115.204 311.315 120.277C312.105 126.345 312.435 132.494 312.303 138.64C312.016 155.749 309.632 172.699 305.234 188.891C302.232 200.633 316.899 205.66 319.888 193.975C324.566 176.459 327.127 158.158 327.485 139.684C327.647 126.178 327.045 110.512 321.195 98.7276C318.368 92.7268 313.862 88.271 308.561 86.2335C302.498 84.0103 296.078 86.9506 290.516 90.0104C284.908 92.8345 279.994 97.4748 276.271 103.461C271.844 111.189 268.513 119.822 266.425 128.979C264.209 137.867 262.712 147.027 260.35 155.863C257.991 164.521 254.756 172.762 250.727 180.381C242.929 195.322 231.732 209.266 217.281 212.653C209.756 214.425 202.108 214.437 196.618 222.27C195.25 224.264 194.207 226.578 193.55 229.079C192.893 231.581 192.634 234.221 192.789 236.848C192.944 239.476 193.509 242.039 194.452 244.391C195.394 246.744 196.697 248.839 198.284 250.557C204.134 257.302 212.9 259.29 220.478 260.828C228.567 262.562 236.788 263.113 244.978 262.47C278.347 259.466 309.01 234.836 319.856 193.943C322.971 182.262 308.288 177.242 305.202 188.879Z" fill="#211715"></path>
<path d="M303.777 65.8629C302.28 73.6557 300.871 81.4805 299.371 89.2733C298.868 91.7631 299.142 94.4006 300.137 96.6439C300.891 98.2694 302.009 99.5788 303.352 100.408C304.694 101.237 306.201 101.549 307.684 101.305C309.167 101.061 310.56 100.271 311.688 99.0352C312.815 97.7993 313.628 96.1719 314.025 94.357C315.522 86.5642 316.934 78.7394 318.431 70.9465C318.934 68.4568 318.66 65.8191 317.665 63.576C316.911 61.9505 315.793 60.6411 314.45 59.812C313.108 58.9829 311.601 58.6709 310.118 58.915C308.635 59.1592 307.242 59.9487 306.114 61.1847C304.987 62.4206 304.174 64.048 303.777 65.8629Z" fill="#211715"></path>
<path d="M290.19 72.7552C302.295 76.004 314.674 77.3423 327.042 76.7393C329.048 76.7013 330.963 75.6817 332.381 73.8967C333.799 72.1117 334.609 69.7016 334.64 67.1775C334.612 64.6525 333.802 62.2407 332.384 60.455C330.965 58.6694 329.048 57.6507 327.042 57.6157C321.317 57.9253 315.583 57.7922 309.871 57.2173C308.415 57.0712 306.961 56.8946 305.509 56.6874C304.84 56.5918 304.171 56.4895 303.502 56.3806C304.879 56.5958 303.394 56.3607 302.869 56.2611C299.978 55.7233 297.104 55.0659 294.249 54.3049C292.307 53.6774 290.247 54.0228 288.503 55.2683C286.759 56.5138 285.468 58.5622 284.9 60.9823C284.394 63.4261 284.665 66.022 285.656 68.2181C286.647 70.4143 288.279 72.0377 290.206 72.7433L290.19 72.7552Z" fill="#211715"></path>
<path d="M15.208 179.517C15.1907 172.521 16.8561 165.682 19.9851 159.899C21.3064 157.757 22.9958 156.018 24.9266 154.813C26.8574 153.609 28.9797 152.969 31.1346 152.943C32.7888 152.899 34.3891 152.195 35.7054 150.934C37.0217 149.672 37.9862 147.918 38.4601 145.923C39.416 141.36 41.1243 137.101 43.474 133.423C45.8237 129.745 48.7621 126.731 52.0982 124.576C55.4343 122.421 59.0935 121.175 62.8377 120.916C66.5818 120.658 70.3273 121.395 73.8304 123.078C75.7731 123.729 77.8411 123.394 79.5894 122.145C81.3377 120.896 82.6266 118.834 83.1787 116.401C83.6714 113.957 83.3941 111.367 82.4046 109.175C81.4151 106.982 79.7902 105.356 77.8699 104.636C72.4372 102.32 66.6856 101.428 60.9688 102.014C55.252 102.6 49.6909 104.651 44.6274 108.043C39.564 111.434 35.1054 116.092 31.5257 121.733C27.9461 127.373 25.3212 133.875 23.8124 140.839L31.1378 133.819C26.9233 133.947 22.7753 135.17 18.9542 137.411C15.1331 139.652 11.7215 142.864 8.9336 146.843C3.20513 156.216 0.0679694 167.689 0 179.513C0 182.049 0.800467 184.481 2.22531 186.274C3.65015 188.067 5.58265 189.075 7.59768 189.075C9.6127 189.075 11.5452 188.067 12.97 186.274C14.3949 184.481 15.1954 182.049 15.1954 179.513L15.208 179.517Z" fill="#211715"></path>
</svg><style>@media (prefers-color-scheme: light) { :root { filter: none; } }
@media (prefers-color-scheme: dark) { :root { filter: none; } }
</style></svg>